<svg xmlns="http://www.w3.org/2000/svg" width="94.502" height="75.865" viewBox="0 0 94.502 75.865">
  <defs>
    <style>
      .cls-1 {
        fill: none;
      }

      .cls-1, .cls-2, .cls-3 {
        stroke: #2e2d2c;
        stroke-linecap: round;
        stroke-linejoin: round;
      }

      .cls-1, .cls-3 {
        stroke-width: 2px;
      }

      .cls-2 {
        fill: #fff;
        stroke-width: 3.2px;
      }

      .cls-3 {
        fill: #114bad;
      }
    </style>
  </defs>
  <g id="グループ_9519" data-name="グループ 9519" transform="translate(1 1)">
    <g id="グループ_9518" data-name="グループ 9518">
      <g id="グループ_9517" data-name="グループ 9517">
        <g id="グループ_9516" data-name="グループ 9516">
          <g id="グループ_9515" data-name="グループ 9515">
            <g id="グループ_9514" data-name="グループ 9514">
              <rect id="長方形_1425" data-name="長方形 1425" class="cls-1" width="92.502" height="73.864" rx="4.535"/>
              <line id="線_430" data-name="線 430" class="cls-1" x2="92.502" transform="translate(0 14.397)"/>
            </g>
          </g>
          <line id="線_431" data-name="線 431" class="cls-2" transform="translate(14.262 7.416)"/>
          <line id="線_432" data-name="線 432" class="cls-2" transform="translate(26.252 7.416)"/>
        </g>
      </g>
    </g>
    <path id="パス_19400" data-name="パス 19400" class="cls-3" d="M333.921,535.3a1.047,1.047,0,0,0-.447-1.191l-5.691-3.285a1.042,1.042,0,0,0-1.254.209l-3.875,4.311a1.836,1.836,0,0,1-1.374.552h-4.194a1.842,1.842,0,0,1-1.375-.553l-3.885-4.305a1.046,1.046,0,0,0-1.255-.208L304.9,534.1a1.044,1.044,0,0,0-.447,1.19l1.786,5.516a1.847,1.847,0,0,1-.21,1.468l-2.1,3.632a1.846,1.846,0,0,1-1.167.915l-5.669,1.206a1.046,1.046,0,0,0-.808.983v6.556a1.047,1.047,0,0,0,.806.983l5.672,1.207a1.844,1.844,0,0,1,1.167.915l2.1,3.629a1.838,1.838,0,0,1,.208,1.466l-1.8,5.513a1.044,1.044,0,0,0,.447,1.19l5.692,3.286a1.045,1.045,0,0,0,1.254-.208l3.874-4.311a1.841,1.841,0,0,1,1.375-.552h4.192a1.854,1.854,0,0,1,1.375.553l3.885,4.307a1.048,1.048,0,0,0,1.257.207l5.668-3.275a1.047,1.047,0,0,0,.447-1.192l-1.786-5.516a1.839,1.839,0,0,1,.21-1.466l2.1-3.632a1.843,1.843,0,0,1,1.165-.915l5.672-1.206a1.045,1.045,0,0,0,.808-.983v-6.559a1.041,1.041,0,0,0-.806-.982l-5.673-1.206a1.85,1.85,0,0,1-1.167-.915l-2.1-3.631a1.842,1.842,0,0,1-.207-1.468Zm-7.842,12.191a8.393,8.393,0,1,1-8.689-3.411,10.14,10.14,0,0,1,2.48-.122,9.709,9.709,0,0,1,1.563.281,10.048,10.048,0,0,1,2.283.976A8.4,8.4,0,0,1,326.079,547.492Z" transform="translate(-272.931 -508.205)"/>
  </g>
</svg>
