<svg xmlns="http://www.w3.org/2000/svg" width="105.753" height="73.137" viewBox="0 0 105.753 73.137">
  <defs>
    <style>
      .cls-1 {
        fill: #013076;
      }
    </style>
  </defs>
  <g id="フリーの握手アイコン" transform="translate(0 -78.954)">
    <path id="パス_20041" data-name="パス 20041" class="cls-1" d="M79.776,78.954l-10.3,10.3.957.994c-.682.551-1.372,1.088-2.042,1.565A16.094,16.094,0,0,1,65.569,93.5a1.8,1.8,0,0,1-.616.072,22.378,22.378,0,0,1-2.864-.338,29.222,29.222,0,0,0-4.424-.395,17.838,17.838,0,0,0-4.792.642,17.952,17.952,0,0,0-4.781-.64,28.778,28.778,0,0,0-4.426.395,22.322,22.322,0,0,1-2.862.337,1.7,1.7,0,0,1-.61-.072,16.747,16.747,0,0,1-3.048-1.841c-.6-.438-1.218-.919-1.827-1.412l.956-.991-10.3-10.3L0,105.859l10.3,10.3,3.015-3.122,6.654,5.808a15.016,15.016,0,0,0,.942,3.163c.264.635.553,1.246.848,1.821a6.768,6.768,0,0,0,4.58,10.181,6.785,6.785,0,0,0,6.8,6.721c.087,0,.176-.013.264-.017a6.777,6.777,0,0,0,6.745,6c.225,0,.449-.024.675-.045a6.185,6.185,0,0,0,9.4,4.5l3.087-1.921a12.408,12.408,0,0,0,1.916,1.021,10.33,10.33,0,0,0,4,.85,7.86,7.86,0,0,0,4.56-1.4,8.424,8.424,0,0,0,2.313-2.531c.1,0,.176.02.277.022a6.915,6.915,0,0,0,2.037-.312,10.42,10.42,0,0,0,2.138-.957,7.417,7.417,0,0,0,3.618-4.508,6.077,6.077,0,0,0,1.209-.517,6.926,6.926,0,0,0,2.81-3.188,8.969,8.969,0,0,0,.8-3.688c0-.119-.015-.235-.02-.353a8.535,8.535,0,0,0,2.385-1.475,7.7,7.7,0,0,0,1.73-2.146A5.834,5.834,0,0,0,83.8,127.3a4.877,4.877,0,0,0-.432-2.017,4.957,4.957,0,0,0-.356-.593A24.289,24.289,0,0,0,84.5,121.56a14.193,14.193,0,0,0,.761-2.714l6.938-6.055,3.252,3.367,10.3-10.3ZM28.657,128.83l-.119.076a1.848,1.848,0,0,1-1.953-3.137l4.08-2.534a1.84,1.84,0,0,1,2.543.594l2.1-1.3-2.1,1.307a1.825,1.825,0,0,1,.279.967,1.867,1.867,0,0,1-.442,1.189l-3.5,2.177A6.866,6.866,0,0,0,28.657,128.83ZM34.1,135.5a1.82,1.82,0,0,1-.971.279,1.836,1.836,0,0,1-1.414-3.026l3.505-2.182a6.76,6.76,0,0,0,.878-.663l.128-.077a1.808,1.808,0,0,1,.969-.279,1.847,1.847,0,0,1,.977,3.418Zm11.083,3.446-4.074,2.533a1.81,1.81,0,0,1-.971.279,1.848,1.848,0,0,1-.981-3.416l4.08-2.534a1.8,1.8,0,0,1,.969-.277,1.846,1.846,0,0,1,.978,3.416Zm6.317,4.131a1.207,1.207,0,0,1,.186.646,1.239,1.239,0,0,1-.588,1.057l-3.5,2.173a1.188,1.188,0,0,1-.65.186,1.236,1.236,0,0,1-.658-2.286h0l3.5-2.177a1.2,1.2,0,0,1,.65-.188,1.229,1.229,0,0,1,1.053.585l2.1-1.3ZM78.71,127.722A3.169,3.169,0,0,1,77.6,128.84a3.278,3.278,0,0,1-1.7.507,2.355,2.355,0,0,0-.6.085,6.81,6.81,0,0,1-1.053-.322,11.05,11.05,0,0,1-2.793-1.674c-.356-.287-.638-.546-.826-.725l-.208-.207-.045-.047-.007-.007h0a1.855,1.855,0,0,0-2.731,2.512,15.853,15.853,0,0,0,2.521,2.13,13.76,13.76,0,0,0,2.734,1.471c.244.1.5.185.758.265a2.412,2.412,0,0,0,.274.464l0,0a2.023,2.023,0,0,1,.106.739,3.873,3.873,0,0,1-.594,2.072,1.65,1.65,0,0,1-.525.511,1.317,1.317,0,0,1-.689.166l-.119,0c-.071,0-.138.008-.207.012h0a7.622,7.622,0,0,1-4.212-1.439,10.589,10.589,0,0,1-1.29-1.031c-.146-.138-.259-.252-.328-.322l-.072-.077-.012-.015h0a1.855,1.855,0,0,0-2.8,2.435h0a13.25,13.25,0,0,0,2.419,2.082,12.372,12.372,0,0,0,3.78,1.747c-.017.044-.027.087-.047.131a2.686,2.686,0,0,1-1.233,1.337,5.665,5.665,0,0,1-1.135.522,1.859,1.859,0,0,1-.588.094,6.355,6.355,0,0,1-1.2-.173,2.175,2.175,0,0,0-.327-.037c-.04-.017-.079-.032-.123-.054a10.669,10.669,0,0,1-1.916-1.256c-.277-.22-.512-.422-.674-.564l-.181-.165-.042-.04-.008-.007a1.855,1.855,0,1,0-2.565,2.682,19.375,19.375,0,0,0,1.915,1.57c.195.138.41.277.625.415a3.564,3.564,0,0,1-.927,1.033,2.91,2.91,0,0,1-1.723.5,5.429,5.429,0,0,1-2.077-.46,7.366,7.366,0,0,1-.717-.376A6.166,6.166,0,0,0,51,137.579c0-.067.012-.134.012-.2a6.789,6.789,0,0,0-1.023-3.582v0a6.787,6.787,0,0,0-5.778-3.213c-.087,0-.176.015-.264.019a6.781,6.781,0,0,0-.971-2.786h0a6.767,6.767,0,0,0-4.548-3.085,6.778,6.778,0,0,0-1.02-3.514h0a6.794,6.794,0,0,0-9.36-2.187l-2.383,1.481c-.057-.131-.129-.259-.181-.39a8.521,8.521,0,0,1-.7-2.647l-.055-1.045-7.972-6.96L31.871,93.816c.773.633,1.565,1.261,2.378,1.849a21.162,21.162,0,0,0,4.046,2.4,6.482,6.482,0,0,0,2.511.452,25.03,25.03,0,0,0,3.6-.395c.077-.013.158-.02.237-.032a39.723,39.723,0,0,0-4.3,4.364c-1.023,1.2-1.886,2.333-2.57,3.256s-1.2,1.659-1.424,1.952a8.136,8.136,0,0,0-1.619,4.971A7.663,7.663,0,0,0,36.3,117.4a6.211,6.211,0,0,0,2.2,1.755,6.86,6.86,0,0,0,2.966.645,10.812,10.812,0,0,0,4.153-.936,77.043,77.043,0,0,1,12.858-4.026c1.777-.4,3.263-.672,4.3-.845l.519-.086,15.547,13.4.007,0,.005.008A1.024,1.024,0,0,1,78.71,127.722Zm1.8-11.291-.054,1.045a7.944,7.944,0,0,1-.573,2.314c-.173.457-.385.917-.606,1.37L65.66,109.423a2.484,2.484,0,0,0-1.928-.581,85.968,85.968,0,0,0-20.045,5.465,5.84,5.84,0,0,1-2.229.544,1.855,1.855,0,0,1-.835-.16,1.386,1.386,0,0,1-.643-.663,3.132,3.132,0,0,1-.3-1.394,3.267,3.267,0,0,1,.574-1.931c.385-.5.855-1.176,1.5-2.052a48.913,48.913,0,0,1,3.827-4.63,25.049,25.049,0,0,1,5.26-4.345,12.858,12.858,0,0,1,6.821-1.891,24.364,24.364,0,0,1,3.69.338,25.059,25.059,0,0,0,3.6.395,6.512,6.512,0,0,0,2.5-.447l.012,0a21.162,21.162,0,0,0,4.046-2.4c.808-.585,1.6-1.216,2.373-1.847l14.879,15.409Z"/>
  </g>
</svg>
