<svg xmlns="http://www.w3.org/2000/svg" xmlns:xlink="http://www.w3.org/1999/xlink" width="288" height="288" viewBox="0 0 288 288">
  <defs>
    <style>
      .cls-1 {
        fill: #013076;
      }

      .cls-2 {
        fill: #fff;
      }

      .cls-3 {
        filter: url(#楕円形_64);
      }
    </style>
    <filter id="楕円形_64" x="0" y="0" width="288" height="288" filterUnits="userSpaceOnUse">
      <feOffset dy="3" input="SourceAlpha"/>
      <feGaussianBlur stdDeviation="3" result="blur"/>
      <feFlood flood-opacity="0.161"/>
      <feComposite operator="in" in2="blur"/>
      <feComposite in="SourceGraphic"/>
    </filter>
  </defs>
  <g id="グループ_10018" data-name="グループ 10018" transform="translate(-1229 -3878)">
    <g class="cls-3" transform="matrix(1, 0, 0, 1, 1229, 3878)">
      <circle id="楕円形_64-2" data-name="楕円形 64" class="cls-1" cx="135" cy="135" r="135" transform="translate(9 6)"/>
    </g>
    <path id="パス_20105" data-name="パス 20105" class="cls-2" d="M339.539,207.329c0-11.4-9.741-20.681-21.715-20.681a21.811,21.811,0,0,0-19.852,12.3,21.811,21.811,0,0,0-19.852-12.3c-11.974,0-21.715,9.278-21.715,20.681a21.26,21.26,0,0,0,6.944,15.2c3.21,2.977,33.072,30.01,33.373,30.282a1.862,1.862,0,0,0,2.5,0c.3-.272,30.163-27.305,33.373-30.282A21.259,21.259,0,0,0,339.539,207.329Z" transform="translate(1075.528 3770.352)"/>
    <path id="パス_20106" data-name="パス 20106" class="cls-2" d="M181.868,283.145l-.008-.036h0A8.39,8.39,0,0,0,179.425,279l-27.659-25.618a8.2,8.2,0,0,0-11.673.47,8.42,8.42,0,0,0,.532,11.8l18.35,17-2.324,4.491-19.3-17.877a13.376,13.376,0,0,1-.845-18.742,13.016,13.016,0,0,1,2.708-2.269l-7.94-30.5a8.257,8.257,0,1,0-16.015,4.023l18.111,69.575a8.38,8.38,0,0,0,3.85,5.18l23.465,17.508,3.448,13.725h27.091l-9.233-44.037Q181.938,283.434,181.868,283.145Z" transform="translate(1176 3752.757)"/>
    <path id="パス_20107" data-name="パス 20107" class="cls-2" d="M491.681,211.659a8.308,8.308,0,0,0-10.044,6.094l-7.939,30.5a13.015,13.015,0,0,1,2.708,2.269,13.376,13.376,0,0,1-.845,18.742l-19.3,17.877-2.324-4.491,18.35-17a8.42,8.42,0,0,0,.532-11.8,8.2,8.2,0,0,0-11.673-.47L433.484,279a8.385,8.385,0,0,0-2.432,4.108h0l-.008.036q-.071.288-.122.58l-9.233,44.037h27.091l3.448-13.725,23.465-17.508a8.381,8.381,0,0,0,3.85-5.18l18.111-69.575A8.307,8.307,0,0,0,491.681,211.659Z" transform="translate(958.091 3752.757)"/>
  </g>
</svg>
