<svg xmlns="http://www.w3.org/2000/svg" viewBox="0 0 934.05 209.81"><defs><style>.cls-1{fill:#2e2624;}.cls-2{fill:#9b1319;}.cls-3{fill:#11366e;}.cls-4{fill:#a6171d;}</style></defs><g id="レイヤー_2" data-name="レイヤー 2"><g id="レイヤー_1-2" data-name="レイヤー 1"><path class="cls-1" d="M317.46,77.58V124c0,6.57,2.86,9.45,9.31,9.45h3.83v21.37c-5.74,3.08-12,3.9-17.92,3.9-12.91,0-20.32-5.34-24.38-12.53h-.95c-5,5.75-15.06,12.94-34.41,12.94-26.29,0-39.91-15.41-39.91-32.05,0-26.71,28-39,70.49-37.19v-9c0-12.94-8.36-16.85-19.35-16.85-12.91,0-19.84,6.37-23.18,13.15L215.42,60.94c5.25-6.37,18.64-21.78,48.51-21.78C298.34,39.16,317.46,49.43,317.46,77.58Zm-33.94,33.29c-23.65-1.44-35.36,3.29-35.36,13.35,0,6.58,5.25,11.3,14.57,11.3,8.84,0,16.73-3.49,20.79-8.21Z"/><path class="cls-1" d="M450.32,159.3c0,33.82-25.81,50.51-61.89,50.51-33.22,0-46.6-8.56-54.25-16.91l20.31-24.38c6.7,8.57,19.84,14.5,33.94,14.5,18.64,0,26.52-6.37,26.52-23.94v-6.37H414c-5,4.17-14.34,7-26.53,7-28,0-53.05-12.74-53.05-57.33,0-34.92,21.51-63.25,65.72-63.25,23.65,0,38.23,2.64,50.18,7.47Zm-50.42-94c-18.88,0-29.63,12.08-29.63,35.8,0,25.47,9.55,31.84,25.56,31.84,7.89,0,14.34-2.19,18.88-6.37V67.49A46.47,46.47,0,0,0,399.9,65.3Z"/><path class="cls-1" d="M834.64,75.74c0-18.9,18.88-35.95,50.19-35.95,24.37,0,39.9,7.39,48.74,16.23L910.39,75.54a38.32,38.32,0,0,0-26.52-10.89c-8.12,0-13.38,3.7-13.38,9,0,17.46,63.56,11.3,63.56,50.13,0,15.41-14.1,36.16-53.29,36.16-29.63,0-47.55-10.68-55-17.46l21.51-21.37a52.5,52.5,0,0,0,35.36,14.38c11.24,0,15.54-4.52,15.54-9.86C898.21,108.82,834.64,114.37,834.64,75.74Z"/><path class="cls-2" d="M79.68,53.38V158.85h39.83V79.28a8.77,8.77,0,0,1,8.77-8.76h22.3a8.77,8.77,0,0,1,8.77,8.76v79.57h39.83V53.38a14,14,0,0,0-14-14H93.7A14,14,0,0,0,79.68,53.38Z"/><path class="cls-3" d="M0,53.38V158.85H39.83V79.28a8.77,8.77,0,0,1,8.77-8.76H70.9a8.76,8.76,0,0,1,8.76,8.76v79.57H119.5V53.38a14,14,0,0,0-14-14H14A14,14,0,0,0,0,53.38Z"/><path class="cls-1" d="M492.68,157.24q-7.95-7.5-7.95-23.63V71.77H467.28V45.49h17.45V32l.19-16.56h30.95v30h28.27V71.77H515.87v55.44q0,9.72,8.83,9.71a41.67,41.67,0,0,0,15-2.87l7.51,21.87a57.31,57.31,0,0,1-30.92,8.83Q500.62,164.75,492.68,157.24Z"/><path class="cls-1" d="M566.5,43h23.85l4.86,17.22h.66q4.86-11.25,11.7-16a27.27,27.27,0,0,1,15.91-4.74,29.16,29.16,0,0,1,15,3.75L633,71.06a27.72,27.72,0,0,0-11.26-2.65,20,20,0,0,0-14,5.63q-6.09,5.63-10.05,18.22v66.47H566.5Z"/><path class="cls-1" d="M686.76,157.42H655.84V41.7h30.92Z"/><path class="cls-1" d="M804.21,127l11.49,20.1q-19.44,15.24-48.59,15.24-17,0-30.36-6.74a49.47,49.47,0,0,1-21.1-20.42q-7.73-13.69-7.73-33.79Q707.92,83,715,69a52.18,52.18,0,0,1,19.88-21.75q12.81-7.73,29.59-7.73,17.24,0,28.93,7.51A47.19,47.19,0,0,1,811,66.89a62.24,62.24,0,0,1,5.85,27,79,79,0,0,1-1.54,16.56H738.84q4.42,27.61,32,27.61A53.1,53.1,0,0,0,804.21,127ZM738.62,90.53h49.91q-.43-13.47-6.4-20.66t-17-7.17Q741.72,62.7,738.62,90.53Z"/><path class="cls-4" d="M686.76,30.92H655.84V0h30.92Z"/></g></g></svg>