<svg xmlns="http://www.w3.org/2000/svg" xmlns:xlink="http://www.w3.org/1999/xlink" width="288" height="288" viewBox="0 0 288 288">
  <defs>
    <style>
      .cls-1 {
        fill: #013076;
      }

      .cls-2 {
        fill: #fff;
      }

      .cls-3 {
        filter: url(#パス_20024);
      }
    </style>
    <filter id="パス_20024" x="0" y="0" width="288" height="288" filterUnits="userSpaceOnUse">
      <feOffset dy="3" input="SourceAlpha"/>
      <feGaussianBlur stdDeviation="3" result="blur"/>
      <feFlood flood-opacity="0.161"/>
      <feComposite operator="in" in2="blur"/>
      <feComposite in="SourceGraphic"/>
    </filter>
  </defs>
  <g id="グループ_10016" data-name="グループ 10016" transform="translate(-403 -3878)">
    <g class="cls-3" transform="matrix(1, 0, 0, 1, 403, 3878)">
      <path id="パス_20024-2" data-name="パス 20024" class="cls-1" d="M135,0A135,135,0,1,1,0,135,135,135,0,0,1,135,0Z" transform="translate(9 6)"/>
    </g>
    <path id="パス_20016" data-name="パス 20016" class="cls-2" d="M73.417,274.151H98.655a9.178,9.178,0,1,0,0-18.357H61.947c-22.951,0-30.214,9.56-38.246,17.588L9.127,286.112a4.345,4.345,0,0,0-1.491,3.268v42.307a1.448,1.448,0,0,0,2.391,1.094l28.167-24.144a4.354,4.354,0,0,1,3.6-.972l43.892,7.976a11.562,11.562,0,0,0,8.759-1.939s56.027-38.954,60.154-42.4h0c3.948-3.617,3.9-8.867.283-12.805s-10.376-3.113-14.881.222c-4.127,3.443-32.322,21.969-32.322,21.969H73.418l-.108.052a3.268,3.268,0,1,1,.217-6.532Z" transform="translate(464.364 3763.42)"/>
    <path id="パス_20017" data-name="パス 20017" class="cls-2" d="M317.2,0A22.975,22.975,0,0,0,297.526,11.12a33.725,33.725,0,0,1,22.139,31.615c0,1.071-.061,2.127-.16,3.174A23.013,23.013,0,0,0,317.2,0Z" transform="translate(261.979 3942.002)"/>
    <path id="パス_20018" data-name="パス 20018" class="cls-2" d="M198.419,54.451a26.3,26.3,0,1,0,26.3,26.3A26.3,26.3,0,0,0,198.419,54.451ZM208.871,78.59h-7.2L200.9,79.8v2.882h7.976v4.094H200.9v6.179h-4.952V86.774h-7.98V82.679h7.98V79.8l-.774-1.212h-7.207V75.1h4.952l-4.207-6.556h4.2l5.509,8.579,5.518-8.579h4.2L203.923,75.1h4.948v3.49Z" transform="translate(349.531 3903.986)"/>
  </g>
</svg>
