<svg xmlns="http://www.w3.org/2000/svg" width="86.736" height="82.75" viewBox="0 0 86.736 82.75">
  <defs>
    <style>
      .cls-1 {
        fill: #013076;
      }
    </style>
  </defs>
  <g id="ペン付きの書類アイコン" transform="translate(-0.002 -11.766)">
    <path id="パス_20042" data-name="パス 20042" class="cls-1" d="M193.195,338.065a1.872,1.872,0,0,0,.548-1.355l1.363-1.361,11.054-2.372a3.372,3.372,0,0,0,2.517-2.03s2.1-4.683,3.37-6.805l-3.52-3.52-.548-.551-3.523-3.523c-2.123,1.273-6.808,3.37-6.808,3.37a3.369,3.369,0,0,0-2.028,2.515l-2.374,11.056-1.358,1.361a1.884,1.884,0,1,0,1.308,3.216Zm8.063-13.637a2.058,2.058,0,1,1,0,2.909A2.058,2.058,0,0,1,201.257,324.428Z" transform="translate(-157.792 -253.15)"/>
    <path id="パス_20043" data-name="パス 20043" class="cls-1" d="M293.926,281.947l-7.507-7.509-3.478,3.478a2.232,2.232,0,0,1-1.953.593l-1.016,1.022,3.563,3.563.85.847,4.455,4.455,1.016-1.019a2.228,2.228,0,0,1,.593-1.951Z" transform="translate(-232.54 -218.174)"/>
    <path id="パス_20044" data-name="パス 20044" class="cls-1" d="M354.851,127.2c-3.473-3.47-7.258-3.155-11.2.789s-15.284,18.063-17.957,20.736l7.637,7.634c2.671-2.671,16.79-14.013,20.734-17.957S358.321,130.666,354.851,127.2Zm-3.446,6.128L339.52,145.206a.737.737,0,0,1-1.051,0l-1.63-1.631a.743.743,0,0,1,0-1.048l11.882-11.885a.748.748,0,0,1,1.056,0l1.628,1.631A.741.741,0,0,1,351.4,133.323Z" transform="translate(-270.513 -93.88)"/>
    <rect id="長方形_1485" data-name="長方形 1485" class="cls-1" width="32.95" height="3.745" transform="translate(14.979 43.967)"/>
    <rect id="長方形_1486" data-name="長方形 1486" class="cls-1" width="24.712" height="3.743" transform="translate(14.979 57.074)"/>
    <rect id="長方形_1487" data-name="長方形 1487" class="cls-1" width="17.6" height="3.745" transform="translate(14.979 70.177)"/>
    <path id="パス_20045" data-name="パス 20045" class="cls-1" d="M60.748,70.246l-1.366,1.128-1.345,1.345V90.024H4.494V16.258H40.625V30.4a3.651,3.651,0,0,0,3.648,3.645H58.037v12.96c.728-.868,1.493-1.774,2.269-2.7.731-.871,1.477-1.76,2.223-2.647v-12.3l-17.6-17.6H1.873A1.871,1.871,0,0,0,0,13.637V92.645a1.871,1.871,0,0,0,1.871,1.871H60.658a1.871,1.871,0,0,0,1.871-1.871V66.868l-2.147,2.147ZM44.373,17.56,57.111,30.3H44.373Z" transform="translate(0 0)"/>
  </g>
</svg>
