<svg xmlns="http://www.w3.org/2000/svg" width="78.299" height="85.84" viewBox="0 0 78.299 85.84">
  <defs>
    <style>
      .cls-1 {
        fill: #013076;
      }
    </style>
  </defs>
  <g id="受話器の線画アイコン" transform="translate(-22.492)">
    <path id="パス_20055" data-name="パス 20055" class="cls-1" d="M100.286,66.714a7.477,7.477,0,0,0-1.862-2.831A33.734,33.734,0,0,0,94.8,61.027c-2.158-1.522-4.734-3.153-7.039-4.5-1.152-.675-2.236-1.278-3.176-1.764a17.728,17.728,0,0,0-2.449-1.1,6.011,6.011,0,0,0-1.872-.293A8.129,8.129,0,0,0,75.356,55.2a9.942,9.942,0,0,0-3.188,4.3,4.992,4.992,0,0,1-.237.541c-2-1.29-6.926-4.947-14.173-13.545A84.982,84.982,0,0,1,48.3,33.229a33.363,33.363,0,0,1-1.488-3,4.815,4.815,0,0,1,.577-.142,9.946,9.946,0,0,0,5.127-2.753A8.733,8.733,0,0,0,54.189,25a6.7,6.7,0,0,0,.693-2.9,5.952,5.952,0,0,0-.06-.847,13.188,13.188,0,0,0-.376-1.638,82.051,82.051,0,0,0-3.037-8.282c-.644-1.535-1.321-3.047-1.98-4.4a30.83,30.83,0,0,0-1.916-3.464A7.539,7.539,0,0,0,44.095.687,9.683,9.683,0,0,0,40.407,0a12.339,12.339,0,0,0-2.89.347A10.178,10.178,0,0,0,36.359.7a6.07,6.07,0,0,0-1.017.475l0,0-.007,0-.087-.144.023.18c-.128.074-.405.231-.745.435a27.8,27.8,0,0,0-7.088,6.03,21,21,0,0,0-4.952,13.559,23.729,23.729,0,0,0,.329,3.889C25.269,39.842,32.2,52,40.093,61.374S58.8,79.638,72.894,84.545A22.432,22.432,0,0,0,80.28,85.84a21.963,21.963,0,0,0,13.075-4.517,28.237,28.237,0,0,0,3.663-3.238c.446-.469.811-.883,1.087-1.206s.479-.574.517-.616a6.639,6.639,0,0,0,.79-1.192,11.912,11.912,0,0,0,1.38-5.4A8.542,8.542,0,0,0,100.286,66.714ZM27.513,21.234a15.577,15.577,0,0,1,1.434-6.621A18.984,18.984,0,0,1,34.085,8.1a23.869,23.869,0,0,1,2.426-1.777c.333-.214.623-.386.853-.521s.389-.222.551-.319a4.413,4.413,0,0,1,.875-.28,7.469,7.469,0,0,1,1.617-.183,4.645,4.645,0,0,1,1.772.307,2.456,2.456,0,0,1,1.164.937,29.494,29.494,0,0,1,1.834,3.408c1.053,2.213,2.189,4.937,3.08,7.311.445,1.185.831,2.285,1.112,3.178a14.565,14.565,0,0,1,.484,1.8l.008.129a1.69,1.69,0,0,1-.193.721,4.185,4.185,0,0,1-1.254,1.447,4.869,4.869,0,0,1-1.963.889,8.652,8.652,0,0,0-2.32.757,5.026,5.026,0,0,0-2.16,1.99,3.87,3.87,0,0,0-.51,1.877l.013.284.078.418c.113.414,2.037,6.995,12.365,19.251S70.406,64.992,70.8,65.174l.425.155a3.365,3.365,0,0,0,.852.1,4.266,4.266,0,0,0,2.624-.948,7.169,7.169,0,0,0,2.176-3.23,4.946,4.946,0,0,1,1.571-2.1,3.211,3.211,0,0,1,1.823-.765l.319.044a9.158,9.158,0,0,1,.935.4,77.936,77.936,0,0,1,7.116,4.1c1.339.853,2.647,1.731,3.762,2.536a26.415,26.415,0,0,1,2.563,2.038,2.4,2.4,0,0,1,.613.934,3.491,3.491,0,0,1,.2,1.216,7.037,7.037,0,0,1-.786,3.036l-.141.242-.029.043c-.149.175-.291.353-.528.631a23.221,23.221,0,0,1-4.9,4.348,16.54,16.54,0,0,1-9.107,2.851A17.357,17.357,0,0,1,74.545,79.8C61.5,75.26,51.394,66.99,43.935,58.138S30.039,37.929,27.774,24.3A18.681,18.681,0,0,1,27.513,21.234Z"/>
  </g>
</svg>
