<svg xmlns="http://www.w3.org/2000/svg" xmlns:xlink="http://www.w3.org/1999/xlink" width="288" height="288" viewBox="0 0 288 288">
  <defs>
    <style>
      .cls-1 {
        fill: #013076;
      }

      .cls-2 {
        fill: #fff;
      }

      .cls-3 {
        filter: url(#楕円形_64);
      }
    </style>
    <filter id="楕円形_64" x="0" y="0" width="288" height="288" filterUnits="userSpaceOnUse">
      <feOffset dy="3" input="SourceAlpha"/>
      <feGaussianBlur stdDeviation="3" result="blur"/>
      <feFlood flood-opacity="0.161"/>
      <feComposite operator="in" in2="blur"/>
      <feComposite in="SourceGraphic"/>
    </filter>
  </defs>
  <g id="グループ_10017" data-name="グループ 10017" transform="translate(-816 -3878)">
    <g class="cls-3" transform="matrix(1, 0, 0, 1, 816, 3878)">
      <circle id="楕円形_64-2" data-name="楕円形 64" class="cls-1" cx="135" cy="135" r="135" transform="translate(9 6)"/>
    </g>
    <path id="パス_20093" data-name="パス 20093" class="cls-2" d="M161.313,158.162l16.592,12.8a10.427,10.427,0,0,0,20.779-1.282c0-.224-.052-.431-.066-.653l24.315-28.766c1.7-1.9,1.727-4.646.073-6.117s-4.373-1.121-6.067.782l-23.894,25.527a10.088,10.088,0,0,0-9.933.163l-15.623-10.878c-2.015-1.484-5.035-.8-6.744,1.532S159.291,156.68,161.313,158.162Z" transform="translate(771.771 3849.321)"/>
    <path id="パス_20094" data-name="パス 20094" class="cls-2" d="M76,0a6.032,6.032,0,0,0,0,12.064A63.968,63.968,0,1,1,22.365,41.221l5.6,4.184a2.226,2.226,0,0,0,3.506-1.322l3.767-17.819a6.024,6.024,0,0,0,.8-3.777l1.7-8.053a2.219,2.219,0,0,0-3.231-2.413L7.85,26.431a2.226,2.226,0,0,0-.273,3.739l5.1,3.81A76,76,0,1,0,76,0Z" transform="translate(884 3943)"/>
  </g>
</svg>
