<svg xmlns="http://www.w3.org/2000/svg" width="97.832" height="77.45" viewBox="0 0 97.832 77.45">
  <defs>
    <style>
      .cls-1 {
        fill: #013076;
      }
    </style>
  </defs>
  <path id="iconmonstr-gear-10" class="cls-1" d="M69.3,42.316V32.986c-4.769-1.7-7.774-2.173-9.294-5.833s.285-6.163,2.446-10.7l-6.6-6.6c-4.5,2.14-7.024,3.97-10.7,2.446S41,7.745,39.316,3H29.981c-1.679,4.72-2.16,7.774-5.833,9.294h0c-3.669,1.525-6.155-.285-10.7-2.446l-6.591,6.6C9,20.973,10.819,23.475,9.3,27.148S4.72,31.3,0,32.981v9.331c4.708,1.679,7.774,2.165,9.294,5.833,1.533,3.7-.33,6.253-2.446,10.7l6.6,6.6c4.513-2.14,7.028-3.97,10.7-2.446h0c3.669,1.52,4.15,4.557,5.833,9.294h9.331c1.679-4.72,2.16-7.765,5.858-9.3h0c3.644-1.516,6.119.289,10.676,2.454l6.6-6.6c-2.14-4.513-3.97-7.024-2.45-10.7s4.59-4.154,9.3-5.829ZM34.649,49.2A11.552,11.552,0,1,1,46.2,37.649,11.552,11.552,0,0,1,34.649,49.2ZM97.832,66.342v-4.39c-2.242-.8-3.656-1.023-4.374-2.743s.135-2.9,1.15-5.038L91.5,51.064c-2.12,1.011-3.306,1.867-5.034,1.154s-1.953-2.14-2.747-4.374H79.334c-.791,2.222-1.019,3.656-2.747,4.374s-2.9-.135-5.034-1.154L68.446,54.17c1.011,2.132,1.867,3.31,1.15,5.038s-2.152,1.953-4.374,2.743v4.39c2.218.787,3.656,1.019,4.374,2.743.722,1.741-.155,2.943-1.15,5.038l3.106,3.106c2.124-1.011,3.31-1.867,5.034-1.154s1.953,2.144,2.747,4.374H83.72c.791-2.222,1.019-3.656,2.756-4.378h0c1.716-.713,2.878.139,5.022,1.158l3.106-3.106C93.6,72,92.741,70.814,93.458,69.09s2.156-1.961,4.374-2.747ZM81.527,69.579a5.434,5.434,0,1,1,5.434-5.434A5.435,5.435,0,0,1,81.527,69.579Z" transform="translate(0 -3)"/>
</svg>
