<svg xmlns="http://www.w3.org/2000/svg" width="88.559" height="69.512" viewBox="0 0 88.559 69.512">
  <defs>
    <style>
      .cls-1 {
        fill: #013076;
      }
    </style>
  </defs>
  <g id="メールの無料アイコンその8_2_" data-name="メールの無料アイコンその8 (2)" transform="translate(-13 -62.062)">
    <path id="パス_20046" data-name="パス 20046" class="cls-1" d="M88.331,64.958a12.25,12.25,0,0,0-2.536-5.371,10.56,10.56,0,0,0-.834-.925,12.257,12.257,0,0,0-8.685-3.6H12.284a12.274,12.274,0,0,0-8.685,3.6,10.787,10.787,0,0,0-.834.925A12.1,12.1,0,0,0,.24,64.958,11.881,11.881,0,0,0,0,67.347V112.29a12.214,12.214,0,0,0,1.018,4.878A12.04,12.04,0,0,0,3.6,120.974c.275.274.548.527.846.777a12.273,12.273,0,0,0,7.839,2.823H76.275a12.2,12.2,0,0,0,7.839-2.834,10.608,10.608,0,0,0,.846-.766,12.292,12.292,0,0,0,2.593-3.805v-.011a12.155,12.155,0,0,0,1.005-4.867V67.347A12.623,12.623,0,0,0,88.331,64.958ZM8.045,63.107a5.934,5.934,0,0,1,4.24-1.76H76.275a5.9,5.9,0,0,1,4.778,2.389L47.514,92.966a4.923,4.923,0,0,1-6.467,0L7.519,63.723A4.533,4.533,0,0,1,8.045,63.107ZM6.285,112.29V70.227L30.556,91.4,6.3,112.552A1.794,1.794,0,0,1,6.285,112.29Zm69.991,6H12.284a5.917,5.917,0,0,1-2.971-.787l25.6-22.306,2.39,2.079a10.634,10.634,0,0,0,13.974,0l2.388-2.079L79.247,117.5A5.925,5.925,0,0,1,76.275,118.288Zm6-6a1.871,1.871,0,0,1-.012.262L58,91.413,82.275,70.238Z" transform="translate(13 7)"/>
  </g>
</svg>
