<svg xmlns="http://www.w3.org/2000/svg" width="103.769" height="97.312" viewBox="0 0 103.769 97.312">
  <defs>
    <style>
      .cls-1 {
        fill: #013076;
      }
    </style>
  </defs>
  <g id="会話アイコン_1_" data-name="会話アイコン (1)" transform="translate(0 -15.932)">
    <path id="パス_20047" data-name="パス 20047" class="cls-1" d="M9.585,339.719a12.138,12.138,0,0,1-3.574-8.606V318.589H0v12.524a18.211,18.211,0,0,0,18.193,18.195h8.215v-6.013H18.193A12.124,12.124,0,0,1,9.585,339.719Z" transform="translate(0 -241.316)"/>
    <path id="パス_20048" data-name="パス 20048" class="cls-1" d="M54.713,173.478a7.935,7.935,0,1,0-7.936-7.936A7.929,7.929,0,0,0,54.713,173.478Z" transform="translate(-37.297 -112.961)"/>
    <path id="パス_20049" data-name="パス 20049" class="cls-1" d="M74.29,273.568H63.157V257a7.763,7.763,0,1,0-15.526,0v18.878a7.763,7.763,0,0,0,7.762,7.764c.582,0,14.192-.04,14.192-.04l.745,11.489a4.263,4.263,0,1,0,8.523-.188l.453-16.318A5.014,5.014,0,0,0,74.29,273.568Z" transform="translate(-37.977 -186.016)"/>
    <path id="パス_20050" data-name="パス 20050" class="cls-1" d="M402.1,318.589v12.524a12.2,12.2,0,0,1-12.18,12.181H381.7v6.013h8.217a18.212,18.212,0,0,0,18.191-18.195V318.589Z" transform="translate(-304.342 -241.316)"/>
    <path id="パス_20051" data-name="パス 20051" class="cls-1" d="M394.858,173.478a7.935,7.935,0,1,0-7.934-7.936A7.933,7.933,0,0,0,394.858,173.478Z" transform="translate(-308.504 -112.961)"/>
    <path id="パス_20052" data-name="パス 20052" class="cls-1" d="M339.762,275.875V257a7.764,7.764,0,1,0-15.528,0v16.57H313.1a5.014,5.014,0,0,0-5.016,5.016l.453,16.318a4.263,4.263,0,1,0,8.523.188l.745-11.489s13.61.04,14.192.04A7.764,7.764,0,0,0,339.762,275.875Z" transform="translate(-245.644 -186.015)"/>
    <rect id="長方形_1488" data-name="長方形 1488" class="cls-1" width="43.045" height="7.326" transform="translate(31.141 77.349)"/>
    <rect id="長方形_1489" data-name="長方形 1489" class="cls-1" width="5.009" height="17.733" transform="translate(49.462 88.607)"/>
    <path id="パス_20053" data-name="パス 20053" class="cls-1" d="M263.933,116.675a7.082,7.082,0,0,1-1.353,4.113,10.256,10.256,0,0,1-3.742,3.154l-1.152.591,1.495,3.341a59.671,59.671,0,0,1-10.866-3.085l-.042-.018-.045-.013a10.579,10.579,0,0,1-6.207-4.729l-2.4,1.315a13.261,13.261,0,0,0,7.707,5.99v0a59.127,59.127,0,0,0,13.966,3.608l2.374.261-2.454-5.489a12.488,12.488,0,0,0,3.606-3.356,9.83,9.83,0,0,0,1.851-5.687,10.084,10.084,0,0,0-2.791-6.844,14.405,14.405,0,0,0-6.833-4.017l-.72,2.638a11.635,11.635,0,0,1,5.539,3.229A7.325,7.325,0,0,1,263.933,116.675Z" transform="translate(-191.054 -71.665)"/>
    <path id="パス_20054" data-name="パス 20054" class="cls-1" d="M130.494,44.394l-3.289,7.353,2.376-.263a83.667,83.667,0,0,0,19.781-5.108,19.547,19.547,0,0,0,8.8-5.584,13.738,13.738,0,0,0,3.561-9.08,13.2,13.2,0,0,0-1.594-6.255,17.152,17.152,0,0,0-7.162-6.9,22.989,22.989,0,0,0-10.828-2.623,22.188,22.188,0,0,0-13.73,4.517,16.16,16.16,0,0,0-4.262,5.007,13.236,13.236,0,0,0-1.591,6.255,13.481,13.481,0,0,0,2.533,7.779A17.54,17.54,0,0,0,130.494,44.394Zm-3.933-17.649a14.462,14.462,0,0,1,6.039-5.781,20.258,20.258,0,0,1,9.539-2.3,19.459,19.459,0,0,1,12.036,3.923,13.409,13.409,0,0,1,3.544,4.154,10.453,10.453,0,0,1,1.27,4.966,11,11,0,0,1-2.883,7.281,16.839,16.839,0,0,1-7.651,4.805l-.04.013-.042.018A84.8,84.8,0,0,1,131.68,48.44l2.352-5.256-1.155-.591a15.178,15.178,0,0,1-5.549-4.679,10.714,10.714,0,0,1-2.04-6.2A10.454,10.454,0,0,1,126.561,26.745Z" transform="translate(-97.717)"/>
  </g>
</svg>
