<svg xmlns="http://www.w3.org/2000/svg" width="74.293" height="74.294" viewBox="0 0 74.293 74.294">
  <defs>
    <style>
      .cls-1 {
        fill: none;
      }

      .cls-1, .cls-2, .cls-3, .cls-4 {
        stroke: #2e2d2c;
      }

      .cls-1, .cls-2, .cls-3 {
        stroke-linecap: round;
        stroke-linejoin: round;
      }

      .cls-1, .cls-2, .cls-4 {
        stroke-width: 2px;
      }

      .cls-2, .cls-3 {
        fill: #fff;
      }

      .cls-3 {
        stroke-width: 2.8px;
      }

      .cls-4 {
        fill: #114bad;
        stroke-miterlimit: 10;
      }
    </style>
  </defs>
  <g id="グループ_10015" data-name="グループ 10015" transform="translate(-922 -3270.445)">
    <path id="パス_19790" data-name="パス 19790" class="cls-1" d="M207.833,295.3l-8.027,8.027-10.087-10.087" transform="translate(759.341 3004.27)"/>
    <path id="パス_19791" data-name="パス 19791" class="cls-2" d="M201.961,302.366a3.114,3.114,0,1,1-3.114-3.115A3.114,3.114,0,0,1,201.961,302.366Z" transform="translate(760.299 3005.227)"/>
    <line id="線_545" data-name="線 545" class="cls-3" transform="translate(944.588 3307.592)"/>
    <line id="線_546" data-name="線 546" class="cls-3" transform="translate(959.146 3293.034)"/>
    <line id="線_547" data-name="線 547" class="cls-3" transform="translate(973.707 3307.596)"/>
    <line id="線_548" data-name="線 548" class="cls-3" transform="translate(959.148 3322.152)"/>
    <path id="パス_19792" data-name="パス 19792" class="cls-4" d="M239.531,303.149a1.394,1.394,0,0,0-1.043-1.3l-6.871-1.912a2.171,2.171,0,0,1-1.427-1.281l-2.006-4.854a2.177,2.177,0,0,1,.107-1.916l3.512-6.209a1.394,1.394,0,0,0-.18-1.655l-5.338-5.338a1.394,1.394,0,0,0-1.655-.181l-6.207,3.513a2.168,2.168,0,0,1-1.914.1l-4.85-2.016a2.183,2.183,0,0,1-1.28-1.431l-1.914-6.873a1.4,1.4,0,0,0-1.3-1.043l-7.535,0a1.394,1.394,0,0,0-1.3,1.043l-1.91,6.87a2.169,2.169,0,0,1-1.281,1.427l-4.855,2.005A2.173,2.173,0,0,1,188.37,282l-6.209-3.513a1.394,1.394,0,0,0-1.655.18L175.167,284a1.394,1.394,0,0,0-.18,1.655l3.511,6.207a2.168,2.168,0,0,1,.1,1.914l-2.016,4.85a2.18,2.18,0,0,1-1.431,1.28l-6.874,1.913a1.394,1.394,0,0,0-1.042,1.3v7.536a1.4,1.4,0,0,0,1.043,1.3l6.871,1.91a2.171,2.171,0,0,1,1.427,1.281l2,4.855a2.174,2.174,0,0,1-.107,1.915l-3.511,6.209a1.394,1.394,0,0,0,.18,1.655l5.339,5.338a1.394,1.394,0,0,0,1.655.181l6.205-3.51a2.164,2.164,0,0,1,1.914-.1l4.85,2.016a2.18,2.18,0,0,1,1.28,1.431l1.914,6.873a1.4,1.4,0,0,0,1.3,1.043l7.536,0a1.394,1.394,0,0,0,1.3-1.043l1.912-6.871a2.167,2.167,0,0,1,1.28-1.427l4.855-2a2.178,2.178,0,0,1,1.915.107l6.21,3.513a1.394,1.394,0,0,0,1.655-.18L231.6,329.8a1.392,1.392,0,0,0,.181-1.655l-3.513-6.205a2.168,2.168,0,0,1-.1-1.914l2.017-4.851a2.178,2.178,0,0,1,1.431-1.28l6.873-1.913a1.394,1.394,0,0,0,1.042-1.3Zm-15.9,3.755a20.244,20.244,0,1,1-20.244-20.245A20.108,20.108,0,0,1,223.629,306.9Z" transform="translate(755.761 3000.689)"/>
  </g>
</svg>
